<svg width="189" height="146" viewBox="0 0 189 146" fill="none" xmlns="http://www.w3.org/2000/svg">
<path fill-rule="evenodd" clip-rule="evenodd" d="M32 128.371H49.7058V88H32V128.371Z" fill="#FFFFFE"/>
<path fill-rule="evenodd" clip-rule="evenodd" d="M32 128.371H49.7058V88H32V128.371Z" stroke="#41494E" stroke-width="5.669" stroke-linecap="round" stroke-linejoin="round"/>
<path fill-rule="evenodd" clip-rule="evenodd" d="M60 127.98H77.7077V113H60V127.98Z" fill="#CECCC3"/>
<path fill-rule="evenodd" clip-rule="evenodd" d="M60 127.98H77.7077V113H60V127.98Z" stroke="#41494E" stroke-width="5.669" stroke-linecap="round" stroke-linejoin="round"/>
<path fill-rule="evenodd" clip-rule="evenodd" d="M88 128.344H105.706V101H88V128.344Z" fill="#FFFFFE"/>
<path fill-rule="evenodd" clip-rule="evenodd" d="M88 128.344H105.706V101H88V128.344Z" stroke="#41494E" stroke-width="5.669" stroke-linecap="round" stroke-linejoin="round"/>
<path fill-rule="evenodd" clip-rule="evenodd" d="M121 127.812H138.706V55H121V127.812Z" fill="#FFFFFE"/>
<path fill-rule="evenodd" clip-rule="evenodd" d="M115.758 128.308H133.464V55.4966H115.758V128.308Z" stroke="#41494E" stroke-width="5.669" stroke-linecap="round" stroke-linejoin="round"/>
<path fill-rule="evenodd" clip-rule="evenodd" d="M144 128.685H161.708V21H144V128.685Z" fill="#FCD18D"/>
<path d="M144.76 128.134H141.925C141.925 129.7 143.194 130.969 144.76 130.969V128.134ZM162.467 128.134V130.969C164.033 130.969 165.302 129.7 165.302 128.134H162.467ZM162.467 20.449H165.302C165.302 18.8835 164.033 17.6145 162.467 17.6145V20.449ZM144.76 20.449V17.6145C143.194 17.6145 141.925 18.8835 141.925 20.449H144.76ZM3.03449 140.312C1.46904 140.312 0.199986 141.581 0.199986 143.147C0.199986 144.712 1.46904 145.981 3.03449 145.981V140.312ZM185.201 145.981C186.766 145.981 188.035 144.712 188.035 143.147C188.035 141.581 186.766 140.312 185.201 140.312V145.981ZM3.03449 125.016C1.46904 125.016 0.199986 126.285 0.199986 127.85C0.199986 129.415 1.46904 130.685 3.03449 130.685V125.016ZM7.5434 130.685C9.10885 130.685 10.3779 129.415 10.3779 127.85C10.3779 126.285 9.10885 125.016 7.5434 125.016V130.685ZM3.03449 109.721C1.46904 109.721 0.199986 110.99 0.199986 112.555C0.199986 114.121 1.46904 115.39 3.03449 115.39V109.721ZM7.5434 115.39C9.10885 115.39 10.3779 114.121 10.3779 112.555C10.3779 110.99 9.10885 109.721 7.5434 109.721V115.39ZM3.03449 94.4262C1.46904 94.4262 0.199986 95.6953 0.199986 97.2607C0.199986 98.8262 1.46904 100.095 3.03449 100.095V94.4262ZM7.5434 100.095C9.10885 100.095 10.3779 98.8262 10.3779 97.2607C10.3779 95.6953 9.10885 94.4262 7.5434 94.4262V100.095ZM3.03449 79.131C1.46904 79.131 0.199986 80.4 0.199986 81.9655C0.199986 83.5309 1.46904 84.8 3.03449 84.8V79.131ZM7.5434 84.8C9.10885 84.8 10.3779 83.5309 10.3779 81.9655C10.3779 80.4 9.10885 79.131 7.5434 79.131V84.8ZM3.03449 63.8363C1.46904 63.8363 0.199986 65.1054 0.199986 66.6708C0.199986 68.2363 1.46904 69.5053 3.03449 69.5053V63.8363ZM7.5434 69.5053C9.10885 69.5053 10.3779 68.2363 10.3779 66.6708C10.3779 65.1054 9.10885 63.8363 7.5434 63.8363V69.5053ZM3.03449 48.541C1.46904 48.541 0.199986 49.8101 0.199986 51.3755C0.199986 52.941 1.46904 54.21 3.03449 54.21V48.541ZM7.5434 54.21C9.10885 54.21 10.3779 52.941 10.3779 51.3755C10.3779 49.8101 9.10885 48.541 7.5434 48.541V54.21ZM3.03449 33.2458C1.46904 33.2458 0.199986 34.5148 0.199986 36.0803C0.199986 37.6457 1.46904 38.9148 3.03449 38.9148V33.2458ZM7.5434 38.9148C9.10885 38.9148 10.3779 37.6457 10.3779 36.0803C10.3779 34.5148 9.10885 33.2458 7.5434 33.2458V38.9148ZM3.03449 17.9505C1.46904 17.9505 0.199986 19.2196 0.199986 20.785C0.199986 22.3505 1.46904 23.6195 3.03449 23.6195V17.9505ZM7.5434 23.6195C9.10885 23.6195 10.3779 22.3505 10.3779 20.785C10.3779 19.2196 9.10885 17.9505 7.5434 17.9505V23.6195ZM0.1655 143.049C0.1655 144.615 1.43455 145.884 3 145.884C4.56545 145.884 5.8345 144.615 5.8345 143.049H0.1655ZM5.8345 3C5.8345 1.43455 4.56545 0.1655 3 0.1655C1.43455 0.1655 0.1655 1.43455 0.1655 3H5.8345ZM144.76 130.969H162.467V125.3H144.76V130.969ZM165.302 128.134V20.449H159.633V128.134H165.302ZM162.467 17.6145H144.76V23.2835H162.467V17.6145ZM141.925 20.449V128.134H147.594V20.449H141.925ZM3.03449 145.981H185.201V140.312H3.03449V145.981ZM185.201 140.312H3.03449V145.981H185.201V140.312ZM3.03449 130.685H7.5434V125.016H3.03449V130.685ZM7.5434 125.016H3.03449V130.685H7.5434V125.016ZM3.03449 115.39H7.5434V109.721H3.03449V115.39ZM7.5434 109.721H3.03449V115.39H7.5434V109.721ZM3.03449 100.095H7.5434V94.4262H3.03449V100.095ZM7.5434 94.4262H3.03449V100.095H7.5434V94.4262ZM3.03449 84.8H7.5434V79.131H3.03449V84.8ZM7.5434 79.131H3.03449V84.8H7.5434V79.131ZM3.03449 69.5053H7.5434V63.8363H3.03449V69.5053ZM7.5434 63.8363H3.03449V69.5053H7.5434V63.8363ZM3.03449 54.21H7.5434V48.541H3.03449V54.21ZM7.5434 48.541H3.03449V54.21H7.5434V48.541ZM3.03449 38.9148H7.5434V33.2458H3.03449V38.9148ZM7.5434 33.2458H3.03449V38.9148H7.5434V33.2458ZM3.03449 23.6195H7.5434V17.9505H3.03449V23.6195ZM7.5434 17.9505H3.03449V23.6195H7.5434V17.9505ZM5.8345 143.049V3H0.1655V143.049H5.8345ZM0.1655 3V143.049H5.8345V3H0.1655Z" fill="#41494E"/>
</svg>
