<svg width="143" height="130" viewBox="0 0 143 130" fill="none" xmlns="http://www.w3.org/2000/svg">
<path d="M1.38777 48.4162C-0.0207332 49.7749 -0.0611171 52.0182 1.29757 53.4267C2.65626 54.8352 4.89952 54.8756 6.30803 53.5169L1.38777 48.4162ZM29.8525 25.8817L31.9727 23.0424C30.5813 22.0035 28.6421 22.1258 27.3924 23.3313L29.8525 25.8817ZM73.8349 58.7234L71.7147 61.5627C73.0301 62.5449 74.8479 62.495 76.1074 61.4422L73.8349 58.7234ZM139.18 8.72124C140.682 7.46614 140.882 5.23143 139.627 3.72988C138.371 2.22833 136.137 2.02855 134.635 3.28366L139.18 8.72124ZM142.599 4.01044C142.599 2.05341 141.012 0.466936 139.055 0.466936C137.098 0.466936 135.512 2.05341 135.512 4.01044H142.599ZM135.512 24.861C135.512 26.818 137.098 28.4045 139.055 28.4045C141.012 28.4045 142.599 26.818 142.599 24.861H135.512ZM138.833 7.33006C140.79 7.33006 142.376 5.74358 142.376 3.78656C142.376 1.82954 140.79 0.24306 138.833 0.24306V7.33006ZM117.977 0.24306C116.02 0.24306 114.434 1.82954 114.434 3.78656C114.434 5.74358 116.02 7.33006 117.977 7.33006V0.24306ZM6.30803 53.5169L32.3127 28.432L27.3924 23.3313L1.38777 48.4162L6.30803 53.5169ZM27.7324 28.7209L71.7147 61.5627L75.955 55.8841L31.9727 23.0424L27.7324 28.7209ZM76.1074 61.4422L139.18 8.72124L134.635 3.28366L71.5623 56.0046L76.1074 61.4422ZM135.512 4.01044V24.861H142.599V4.01044H135.512ZM138.833 0.24306H117.977V7.33006H138.833V0.24306Z" fill="#41494E"/>
<path fill-rule="evenodd" clip-rule="evenodd" d="M14.0056 69.6265V126.803H36.5939V57.7364L30.2636 53.369L14.0056 69.6265" fill="#FFFFFE"/>
<path fill-rule="evenodd" clip-rule="evenodd" d="M14.0056 69.6265V126.803H36.5939V57.7364L30.2636 53.369L14.0056 69.6265V69.6265Z" stroke="#41494E" stroke-width="5.669" stroke-linecap="round" stroke-linejoin="round"/>
<path fill-rule="evenodd" clip-rule="evenodd" d="M44.9832 126.803H67.5738V79.1141L44.9832 63.5265V126.803" fill="#FCD18D"/>
<path fill-rule="evenodd" clip-rule="evenodd" d="M44.9832 126.803H67.5738V79.1141L44.9832 63.5265V126.803V126.803Z" stroke="#41494E" stroke-width="5.669" stroke-linecap="round" stroke-linejoin="round"/>
<path fill-rule="evenodd" clip-rule="evenodd" d="M76.609 79.9886V126.803H99.1997V60.1834L76.609 79.9886" fill="#FFFFFE"/>
<path fill-rule="evenodd" clip-rule="evenodd" d="M76.609 79.9886V126.803H99.1997V60.1834L76.609 79.9886V79.9886Z" stroke="#41494E" stroke-width="5.669" stroke-linecap="round" stroke-linejoin="round"/>
<path fill-rule="evenodd" clip-rule="evenodd" d="M107.589 56.0796V126.803H130.179V43.5065H120.577L107.589 56.0796" fill="#FFFFFE"/>
<path fill-rule="evenodd" clip-rule="evenodd" d="M107.589 56.0796V126.803H130.179V43.5065H120.577L107.589 56.0796V56.0796Z" stroke="#41494E" stroke-width="5.669" stroke-linecap="round" stroke-linejoin="round"/>
</svg>
