<svg width="160" height="136" viewBox="0 0 160 136" fill="none" xmlns="http://www.w3.org/2000/svg">
<path fill-rule="evenodd" clip-rule="evenodd" d="M100.535 132.258H60.4941L66.2104 107.4H94.8162L100.535 132.258Z" fill="#CECCC3"/>
<path fill-rule="evenodd" clip-rule="evenodd" d="M100.535 132.258H60.4941L66.2104 107.4H94.8162L100.535 132.258V132.258Z" stroke="#41494E" stroke-width="6"/>
<path d="M48.9785 132.258H112.683" stroke="#41494E" stroke-width="6" stroke-linecap="round" stroke-linejoin="round"/>
<path fill-rule="evenodd" clip-rule="evenodd" d="M157 98.2612C157 102.989 155.284 106.848 150.545 106.848H11.9747C7.23672 106.848 3.00006 102.989 3.00006 98.2612V8.28575C3.00006 3.55846 7.23672 3 11.9747 3H150.545C155.284 3 157 3.55846 157 8.28575V98.2612Z" fill="#CECCC3"/>
<path fill-rule="evenodd" clip-rule="evenodd" d="M157 98.2612C157 102.989 155.284 106.848 150.545 106.848H11.9747C7.23672 106.848 3.00006 102.989 3.00006 98.2612V8.28575C3.00006 3.55846 7.23672 3 11.9747 3H150.545C155.284 3 157 3.55846 157 8.28575V98.2612V98.2612Z" stroke="#41494E" stroke-width="6"/>
<path d="M3.00006 94.1432H156.446" stroke="#41494E" stroke-width="6" stroke-linecap="round" stroke-linejoin="round"/>
<path fill-rule="evenodd" clip-rule="evenodd" d="M4.66193 88.067H155.335V12.9429H4.66193V88.067Z" fill="#FFFFFE"/>
<path d="M148.691 71.9289H120.993V74.9289H148.691V71.9289ZM132.072 65.3003H120.993V68.3003H132.072V65.3003ZM145.367 65.3003H134.842V68.3003H145.367V65.3003ZM144.259 78.5575H120.993V81.5575H144.259V78.5575Z" fill="#41494E"/>
<path d="M4.10797 12.3905H156.446" stroke="#41494E" stroke-width="6" stroke-linecap="round" stroke-linejoin="round"/>
<path d="M3.00006 88.6194H156.446" stroke="#41494E" stroke-width="6" stroke-linecap="round" stroke-linejoin="round"/>
<path fill-rule="evenodd" clip-rule="evenodd" d="M93.5725 61.4344L68.2578 36.655L93.5725 61.4344Z" fill="#F9D27C"/>
<path d="M93.5725 61.4344L68.2578 36.655" stroke="#41494E" stroke-width="3.669" stroke-linecap="round" stroke-linejoin="round"/>
<path fill-rule="evenodd" clip-rule="evenodd" d="M45.1877 61.0969L31.6036 66.2716L45.1877 61.0969Z" fill="#F9D27C"/>
<path d="M45.1877 61.0969L31.6036 66.2716" stroke="#41494E" stroke-width="3.669" stroke-linecap="round" stroke-linejoin="round"/>
<path fill-rule="evenodd" clip-rule="evenodd" d="M128.413 26.031L99.3198 60.7737L128.413 26.031Z" fill="#F9D27C"/>
<path d="M128.413 26.031L99.3198 60.7737" stroke="#41494E" stroke-width="3.669" stroke-linecap="round" stroke-linejoin="round"/>
<path fill-rule="evenodd" clip-rule="evenodd" d="M64.0577 38.5536L52.1382 55.6023L64.0577 38.5536Z" fill="#F9D27C"/>
<path d="M64.0577 38.5536L52.1382 55.6023" stroke="#41494E" stroke-width="3.669" stroke-linecap="round" stroke-linejoin="round"/>
<path fill-rule="evenodd" clip-rule="evenodd" d="M32.5509 68.7402C31.7515 70.7807 29.4393 71.7938 27.3919 70.9956C25.3428 70.198 24.3318 67.8934 25.1306 65.854C25.9316 63.8096 28.2416 62.7993 30.2907 63.5975C32.342 64.3952 33.3536 66.697 32.5509 68.7402Z" fill="#F9D27C"/>
<path fill-rule="evenodd" clip-rule="evenodd" d="M32.5509 68.7402C31.7515 70.7807 29.4393 71.7938 27.3919 70.9956C25.3428 70.198 24.3318 67.8934 25.1306 65.854C25.9316 63.8096 28.2416 62.7993 30.2907 63.5975C32.342 64.3952 33.3536 66.697 32.5509 68.7402V68.7402Z" stroke="#41494E" stroke-width="3.669" stroke-linecap="round" stroke-linejoin="round"/>
<path fill-rule="evenodd" clip-rule="evenodd" d="M53.5248 59.9545C52.726 61.995 50.4148 63.0059 48.3658 62.2088C46.3183 61.4112 45.3057 59.1083 46.1062 57.0683C46.9061 55.0245 49.2189 54.0136 51.2657 54.8107C53.3165 55.6073 54.3286 57.9118 53.5248 59.9545Z" fill="#F9D27C"/>
<path fill-rule="evenodd" clip-rule="evenodd" d="M53.5248 59.9545C52.726 61.995 50.4148 63.0059 48.3658 62.2088C46.3183 61.4112 45.3057 59.1083 46.1062 57.0683C46.9061 55.0245 49.2189 54.0136 51.2657 54.8107C53.3165 55.6073 54.3286 57.9118 53.5248 59.9545V59.9545Z" stroke="#41494E" stroke-width="3.669" stroke-linecap="round" stroke-linejoin="round"/>
<path fill-rule="evenodd" clip-rule="evenodd" d="M71.0071 37.8305C70.2083 39.8716 67.8983 40.8841 65.8476 40.0854C63.7985 39.2872 62.7858 36.9837 63.5863 34.9405C64.3868 32.8978 66.699 31.8869 68.747 32.6879C70.7972 33.4838 71.8076 35.7862 71.0071 37.8305Z" fill="#F9D27C"/>
<path fill-rule="evenodd" clip-rule="evenodd" d="M71.0071 37.8305C70.2083 39.8716 67.8983 40.8841 65.8476 40.0854C63.7985 39.2872 62.7858 36.9837 63.5863 34.9405C64.3868 32.8978 66.699 31.8869 68.747 32.6879C70.7972 33.4838 71.8076 35.7862 71.0071 37.8305V37.8305Z" stroke="#41494E" stroke-width="3.669" stroke-linecap="round" stroke-linejoin="round"/>
<path fill-rule="evenodd" clip-rule="evenodd" d="M99.6882 63.6959C99.6882 65.8866 97.9034 67.667 95.7047 67.667C93.5061 67.667 91.7212 65.8883 91.7229 63.697C91.7229 61.5029 93.5066 59.7242 95.707 59.7242C97.9084 59.7209 99.6882 61.5007 99.6882 63.6959Z" fill="#F9D27C"/>
<path fill-rule="evenodd" clip-rule="evenodd" d="M99.6882 63.6959C99.6882 65.8866 97.9034 67.667 95.7047 67.667C93.5061 67.667 91.7212 65.8883 91.7229 63.697C91.7229 61.5029 93.5066 59.7242 95.707 59.7242C97.9084 59.7209 99.6882 61.5007 99.6882 63.6959V63.6959Z" stroke="#41494E" stroke-width="3.669" stroke-linecap="round" stroke-linejoin="round"/>
<path fill-rule="evenodd" clip-rule="evenodd" d="M133.166 24.5474C133.166 26.7376 131.382 28.5163 129.183 28.5163C126.983 28.5163 125.2 26.7387 125.201 24.5474C125.201 22.3528 126.986 20.5741 129.183 20.5763C131.385 20.5741 133.168 22.3506 133.166 24.5474Z" fill="#F9D27C"/>
<path fill-rule="evenodd" clip-rule="evenodd" d="M133.166 24.5474C133.166 26.7376 131.382 28.5163 129.183 28.5163C126.983 28.5163 125.2 26.7387 125.201 24.5474C125.201 22.3528 126.986 20.5741 129.183 20.5763C131.385 20.5741 133.168 22.3506 133.166 24.5474V24.5474Z" stroke="#41494E" stroke-width="3.669" stroke-linecap="round" stroke-linejoin="round"/>
</svg>
