<svg width="147" height="146" viewBox="0 0 147 146" fill="none" xmlns="http://www.w3.org/2000/svg">
<path fill-rule="evenodd" clip-rule="evenodd" d="M73.2136 61.4252C73.1617 61.4252 73.1098 61.4245 73.0607 61.4224C72.3669 61.3761 71.7292 61.0254 71.3203 60.4628L38.4455 15.2431C38.0534 14.7016 37.911 14.0176 38.0548 13.3653C38.1986 12.7115 38.616 12.1538 39.1982 11.8276C49.574 6.0529 61.3345 3 73.2136 3C87.7766 3 101.78 7.47622 113.709 15.9453C114.259 16.3389 114.614 16.9499 114.68 17.6254C114.746 18.2996 114.515 18.9716 114.051 19.4605L74.9049 60.6985C74.4636 61.1643 73.8512 61.4252 73.2136 61.4252Z" fill="#FCD18D"/>
<path fill-rule="evenodd" clip-rule="evenodd" d="M73.2136 61.4252C73.1617 61.4252 73.1098 61.4245 73.0607 61.4224C72.3669 61.3761 71.7292 61.0254 71.3203 60.4628L38.4455 15.2431C38.0534 14.7016 37.911 14.0176 38.0548 13.3653C38.1986 12.7115 38.616 12.1538 39.1982 11.8276C49.574 6.0529 61.3345 3 73.2136 3C87.7766 3 101.78 7.47622 113.709 15.9453C114.259 16.3389 114.614 16.9499 114.68 17.6254C114.746 18.2996 114.515 18.9716 114.051 19.4605L74.9049 60.6985C74.4636 61.1643 73.8512 61.4252 73.2136 61.4252V61.4252Z" stroke="#41494E" stroke-width="5.669"/>
<path fill-rule="evenodd" clip-rule="evenodd" d="M111.278 131.237C111.093 131.237 110.91 131.215 110.728 131.171C110.082 131.014 109.534 130.593 109.22 130.012L80.2814 76.4347C79.7973 75.5403 79.9482 74.4362 80.6539 73.7024L123.956 28.7171C124.42 28.2359 125.077 27.9616 125.738 28.0044C126.407 28.0317 127.034 28.3453 127.455 28.8672C137.543 41.3096 143.098 56.9802 143.098 72.9869C143.098 96.0996 131.697 117.724 112.601 130.826C112.206 131.095 111.744 131.237 111.278 131.237Z" fill="#CECCC3"/>
<path fill-rule="evenodd" clip-rule="evenodd" d="M111.278 131.237C111.093 131.237 110.91 131.215 110.728 131.171C110.082 131.014 109.534 130.593 109.22 130.012L80.2814 76.4347C79.7973 75.5403 79.9482 74.4362 80.6539 73.7024L123.956 28.7171C124.42 28.2359 125.077 27.9616 125.738 28.0044C126.407 28.0317 127.034 28.3453 127.455 28.8672C137.543 41.3096 143.098 56.9802 143.098 72.9869C143.098 96.0996 131.697 117.724 112.601 130.826C112.206 131.095 111.744 131.237 111.278 131.237V131.237Z" stroke="#41494E" stroke-width="6"/>
<path fill-rule="evenodd" clip-rule="evenodd" d="M73.8002 142.771C35.1396 142.771 3.68958 111.319 3.68958 72.66C3.68958 53.813 11.0735 36.1185 24.4881 22.8428C24.9658 22.37 25.6168 22.1427 26.2889 22.1701C26.9567 22.2171 27.5747 22.5468 27.9844 23.0785L68.6387 75.9072C68.7383 76.0356 68.8218 76.1716 68.8919 76.3183L97.6391 135.786C97.9309 136.393 97.9505 137.09 97.6938 137.709C97.4321 138.325 96.9214 138.802 96.2866 139.019C88.9455 141.511 81.3792 142.771 73.8002 142.771Z" fill="#FFFFFE"/>
<path fill-rule="evenodd" clip-rule="evenodd" d="M73.1107 142.604C34.45 142.604 3 111.151 3 72.4921C3 53.6451 10.3839 35.9507 23.7986 22.6749C24.2763 22.2021 24.9273 21.9748 25.5993 22.0022C26.2671 22.0492 26.8851 22.3789 27.2948 22.9106L67.9491 75.7393C68.0487 75.8677 68.1322 76.0038 68.2023 76.1504L96.9495 135.618C97.2413 136.225 97.261 136.922 97.0042 137.542C96.7426 138.157 96.2319 138.634 95.597 138.851C88.2559 141.343 80.6896 142.604 73.1107 142.604V142.604Z" stroke="#41494E" stroke-width="5.669" stroke-linecap="round" stroke-linejoin="round"/>
</svg>
