<svg width="181" height="138" viewBox="0 0 181 138" fill="none" xmlns="http://www.w3.org/2000/svg">
<path fill-rule="evenodd" clip-rule="evenodd" d="M46.2515 91.7719H90.1537V47.8766H46.2515V91.7719Z" fill="#C6E5E3"/>
<path fill-rule="evenodd" clip-rule="evenodd" d="M46.2515 91.7719H90.1537V47.8766H46.2515V91.7719Z" fill="#C6E5E3"/>
<path fill-rule="evenodd" clip-rule="evenodd" d="M90.1904 91.7719H134.093V47.8766H90.1904V91.7719Z" fill="#F9D27C"/>
<path fill-rule="evenodd" clip-rule="evenodd" d="M90.1904 47.2375H134.093V3.34216H90.1904V47.2375Z" fill="#CECCC3"/>
<path d="M3.16727 0.67374C1.60182 0.67374 0.332768 1.94279 0.332768 3.50824C0.332768 5.07369 1.60182 6.34274 3.16727 6.34274V0.67374ZM178.037 6.34274C179.603 6.34274 180.872 5.07369 180.872 3.50824C180.872 1.94279 179.603 0.67374 178.037 0.67374V6.34274ZM3.16727 44.3957C1.60182 44.3957 0.332768 45.6648 0.332768 47.2302C0.332768 48.7957 1.60182 50.0647 3.16727 50.0647V44.3957ZM178.037 50.0647C179.603 50.0647 180.872 48.7957 180.872 47.2302C180.872 45.6648 179.603 44.3957 178.037 44.3957V50.0647ZM3.16727 88.1177C1.60182 88.1177 0.332768 89.3867 0.332768 90.9522C0.332768 92.5176 1.60182 93.7867 3.16727 93.7867V88.1177ZM178.037 93.7867C179.603 93.7867 180.872 92.5176 180.872 90.9522C180.872 89.3867 179.603 88.1177 178.037 88.1177V93.7867ZM3.16727 131.839C1.60182 131.839 0.332768 133.108 0.332768 134.674C0.332768 136.239 1.60182 137.508 3.16727 137.508V131.839ZM178.037 137.508C179.603 137.508 180.872 136.239 180.872 134.674C180.872 133.108 179.603 131.839 178.037 131.839V137.508ZM0.300266 134.583C0.300266 136.148 1.56931 137.417 3.13477 137.417C4.70022 137.417 5.96927 136.148 5.96927 134.583H0.300266ZM5.96927 3.54194C5.96927 1.97649 4.70022 0.707441 3.13477 0.707441C1.56931 0.707441 0.300266 1.97649 0.300266 3.54194H5.96927ZM44.028 134.583C44.028 136.148 45.297 137.417 46.8625 137.417C48.4279 137.417 49.697 136.148 49.697 134.583H44.028ZM49.697 3.54194C49.697 1.97649 48.4279 0.707441 46.8625 0.707441C45.297 0.707441 44.028 1.97649 44.028 3.54194H49.697ZM87.7557 134.583C87.7557 136.148 89.0247 137.417 90.5902 137.417C92.1556 137.417 93.4247 136.148 93.4247 134.583H87.7557ZM93.4247 3.54194C93.4247 1.97649 92.1556 0.707441 90.5902 0.707441C89.0247 0.707441 87.7557 1.97649 87.7557 3.54194H93.4247ZM131.485 134.583C131.485 136.148 132.754 137.417 134.32 137.417C135.885 137.417 137.154 136.148 137.154 134.583H131.485ZM137.154 3.54194C137.154 1.97649 135.885 0.707441 134.32 0.707441C132.754 0.707441 131.485 1.97649 131.485 3.54194H137.154ZM175.213 134.583C175.213 136.148 176.482 137.417 178.047 137.417C179.613 137.417 180.882 136.148 180.882 134.583H175.213ZM180.882 3.54194C180.882 1.97649 179.613 0.707441 178.047 0.707441C176.482 0.707441 175.213 1.97649 175.213 3.54194H180.882ZM3.16727 6.34274H178.037V0.67374H3.16727V6.34274ZM3.16727 50.0647H178.037V44.3957H3.16727V50.0647ZM3.16727 93.7867H178.037V88.1177H3.16727V93.7867ZM3.16727 137.508H178.037V131.839H3.16727V137.508ZM5.96927 134.583V3.54194H0.300266V134.583H5.96927ZM49.697 134.583V3.54194H44.028V134.583H49.697ZM93.4247 134.583V3.54194H87.7557V134.583H93.4247ZM137.154 134.583V3.54194H131.485V134.583H137.154ZM180.882 134.583V3.54194H175.213V134.583H180.882Z" fill="#41494E"/>
<path fill-rule="evenodd" clip-rule="evenodd" d="M123.364 28.8935H118.992V24.5207H116.075V28.8935H111.703V31.8081H116.075V36.1797H118.992V31.8081H123.364V28.8935Z" fill="#41494E"/>
<path fill-rule="evenodd" clip-rule="evenodd" d="M110.8 35.9835H106.429V31.6107H103.514V35.9835H99.1389V38.8981H103.514V43.2703H106.429V38.8981H110.8V35.9835Z" fill="#41494E"/>
<path fill-rule="evenodd" clip-rule="evenodd" d="M153.041 64.0209H148.668V59.6487H145.753V64.0209H141.379V66.9361H145.753V71.3083H148.668V66.9361H153.041V64.0209Z" fill="#41494E"/>
<path fill-rule="evenodd" clip-rule="evenodd" d="M151.7 23.9857H147.328V19.6129H144.412V23.9857H140.04V26.9002H144.412V31.2724H147.328V26.9002H151.7V23.9857Z" fill="#41494E"/>
<path fill-rule="evenodd" clip-rule="evenodd" d="M110.8 54.9407H106.429V50.5685H103.514V54.9407H99.1389V57.8559H103.514V62.2281H106.429V57.8559H110.8V54.9407Z" fill="#41494E"/>
<path fill-rule="evenodd" clip-rule="evenodd" d="M85.1266 70.1354H80.7544V65.7632H77.8388V70.1354H73.4659V73.05H77.8388V77.4228H80.7544V73.05H85.1266V70.1354Z" fill="#41494E"/>
<path fill-rule="evenodd" clip-rule="evenodd" d="M71.1053 77.7267H66.7318V73.3551H63.8174V77.7267H59.4452V80.6419H63.8174V85.0141H66.7318V80.6419H71.1053V77.7267Z" fill="#41494E"/>
<path fill-rule="evenodd" clip-rule="evenodd" d="M40.7284 77.9626H36.3544V73.5916H33.44V77.9626H29.0665V80.8778H33.44V85.25H36.3544V80.8778H40.7284V77.9626Z" fill="#41494E"/>
<path fill-rule="evenodd" clip-rule="evenodd" d="M130.691 69.5462H126.32V65.1746H123.404V69.5462H119.032V72.4602H123.404V76.8329H126.32V72.4602H130.691V69.5462Z" fill="#41494E"/>
<path fill-rule="evenodd" clip-rule="evenodd" d="M157.743 77.1436H153.369V72.7708H150.454V77.1436H146.081V80.0581H150.454V84.4297H153.369V80.0581H157.743V77.1436Z" fill="#41494E"/>
</svg>
