<svg width="170" height="159" viewBox="0 0 170 159" fill="none" xmlns="http://www.w3.org/2000/svg">
<path fill-rule="evenodd" clip-rule="evenodd" d="M39.9454 147.217L12.2308 61.9342L84.7409 15.9603L157.344 61.9342L129.631 147.217H39.9454V147.217Z" stroke="#41494E" stroke-width="5.669"/>
<path fill-rule="evenodd" clip-rule="evenodd" d="M53.1169 125.412L33.6555 67.0388L84.334 27.3099L134.204 67.4438L119.775 132.057L53.1169 125.412Z" fill="#99DBFF" fill-opacity="0.701653"/>
<path fill-rule="evenodd" clip-rule="evenodd" d="M53.1169 125.412L33.6555 67.0388L84.334 27.3099L134.204 67.4438L119.775 132.057L53.1169 125.412V125.412Z" stroke="#41494E" stroke-width="5.669"/>
<path fill-rule="evenodd" clip-rule="evenodd" d="M60.8068 115.119L49.4669 70.2826L84.7872 41.3232L123.59 69.5123L105.823 111.225L60.8068 115.119Z" fill="#CECCC3"/>
<path fill-rule="evenodd" clip-rule="evenodd" d="M60.8068 115.119L49.4669 70.2826L84.7872 41.3232L123.59 69.5123L105.823 111.225L60.8068 115.119V115.119Z" stroke="#41494E" stroke-width="5.669"/>
<path fill-rule="evenodd" clip-rule="evenodd" d="M72.4627 97.1868L64.845 73.7449L84.7872 59.2579L104.731 73.7449L94.065 93.3881L72.4627 97.1868Z" fill="#FFFFFE"/>
<path fill-rule="evenodd" clip-rule="evenodd" d="M72.4627 97.1868L64.845 73.7449L84.7872 59.2579L104.731 73.7449L94.065 93.3881L72.4627 97.1868V97.1868Z" stroke="#41494E" stroke-width="5.669"/>
<path d="M4.10362 57.4466C2.57679 57.1011 1.0589 58.0587 0.713331 59.5855C0.367758 61.1123 1.32536 62.6302 2.85219 62.9758L4.10362 57.4466ZM83.9274 81.3258C85.4542 81.6713 86.9721 80.7137 87.3177 79.1869C87.6633 77.6601 86.7057 76.1422 85.1788 75.7966L83.9274 81.3258ZM167.067 62.9767C168.595 62.6335 169.554 61.1171 169.211 59.5898C168.868 58.0624 167.352 57.1025 165.824 57.4457L167.067 62.9767ZM83.9552 75.842C82.4278 76.1852 81.4678 77.7016 81.8111 79.229C82.1543 80.7563 83.6707 81.7163 85.198 81.3731L83.9552 75.842ZM31.3031 153.699C30.4368 155.003 30.7915 156.762 32.0953 157.628C33.3992 158.495 35.1585 158.14 36.0249 156.836L31.3031 153.699ZM86.914 80.2454C87.7803 78.9415 87.4256 77.1822 86.1218 76.3159C84.8179 75.4495 83.0586 75.8042 82.1922 77.1081L86.914 80.2454ZM132.308 155.871C133.17 157.178 134.928 157.537 136.235 156.675C137.541 155.812 137.901 154.054 137.039 152.748L132.308 155.871ZM87.0227 76.991C86.1602 75.6846 84.4019 75.3248 83.0955 76.1873C81.7891 77.0498 81.4293 78.8081 82.2918 80.1145L87.0227 76.991ZM87.5363 3.64587C87.5363 2.08042 86.2673 0.811374 84.7018 0.811374C83.1363 0.811374 81.8673 2.08042 81.8673 3.64587H87.5363ZM81.8673 78.6214C81.8673 80.1868 83.1363 81.4559 84.7018 81.4559C86.2673 81.4559 87.5363 80.1868 87.5363 78.6214H81.8673ZM2.85219 62.9758L83.9274 81.3258L85.1788 75.7966L4.10362 57.4466L2.85219 62.9758ZM165.824 57.4457L83.9552 75.842L85.198 81.3731L167.067 62.9767L165.824 57.4457ZM36.0249 156.836L86.914 80.2454L82.1922 77.1081L31.3031 153.699L36.0249 156.836ZM137.039 152.748L87.0227 76.991L82.2918 80.1145L132.308 155.871L137.039 152.748ZM81.8673 3.64587V78.6214H87.5363V3.64587H81.8673Z" fill="#41494E"/>
<path fill-rule="evenodd" clip-rule="evenodd" d="M89.1456 41.8769C89.1456 44.6513 86.8921 46.9075 84.1137 46.9075C81.336 46.9075 79.0842 44.6537 79.0842 41.8781C79.0842 39.1001 81.3384 36.8463 84.1179 36.8463C86.8963 36.8439 89.1469 39.0965 89.1456 41.8769Z" fill="#F9D27C"/>
<path fill-rule="evenodd" clip-rule="evenodd" d="M89.1456 41.8769C89.1456 44.6513 86.8921 46.9075 84.1137 46.9075C81.336 46.9075 79.0842 44.6537 79.0842 41.8781C79.0842 39.1001 81.3384 36.8463 84.1179 36.8463C86.8963 36.8439 89.1469 39.0965 89.1456 41.8769V41.8769Z" stroke="#41494E" stroke-width="5.669" stroke-linecap="round" stroke-linejoin="round"/>
<path fill-rule="evenodd" clip-rule="evenodd" d="M55.2115 70.8537C55.2115 73.6269 52.9574 75.8837 50.1802 75.8837C47.4018 75.8837 45.1513 73.6293 45.1513 70.855C45.1513 68.0758 47.4042 65.822 50.1844 65.822C52.9628 65.8208 55.2133 68.0728 55.2115 70.8537Z" fill="#FFFFFE"/>
<path fill-rule="evenodd" clip-rule="evenodd" d="M55.2115 70.8537C55.2115 73.6269 52.9574 75.8837 50.1802 75.8837C47.4018 75.8837 45.1513 73.6293 45.1513 70.855C45.1513 68.0758 47.4042 65.822 50.1844 65.822C52.9628 65.8208 55.2133 68.0728 55.2115 70.8537V70.8537Z" stroke="#41494E" stroke-width="5.669" stroke-linecap="round" stroke-linejoin="round"/>
<path fill-rule="evenodd" clip-rule="evenodd" d="M110.395 109.85C110.395 112.623 108.141 114.881 105.364 114.881C102.585 114.881 100.334 112.628 100.334 109.851C100.334 107.072 102.588 104.82 105.367 104.82C108.145 104.818 110.396 107.069 110.395 109.85Z" fill="#FFFFFE"/>
<path fill-rule="evenodd" clip-rule="evenodd" d="M110.395 109.85C110.395 112.623 108.141 114.881 105.364 114.881C102.585 114.881 100.334 112.628 100.334 109.851C100.334 107.072 102.588 104.82 105.367 104.82C108.145 104.818 110.396 107.069 110.395 109.85V109.85Z" stroke="#41494E" stroke-width="5.669" stroke-linecap="round" stroke-linejoin="round"/>
<path fill-rule="evenodd" clip-rule="evenodd" d="M59.1931 124.34C59.1931 127.113 56.9395 129.368 54.1618 129.368C51.3828 129.368 49.1317 127.115 49.1317 124.341C49.1317 121.562 51.3864 119.308 54.1654 119.308C56.9444 119.305 59.1949 121.559 59.1931 124.34Z" fill="#F9D27C"/>
<path fill-rule="evenodd" clip-rule="evenodd" d="M59.1931 124.34C59.1931 127.113 56.9395 129.368 54.1618 129.368C51.3828 129.368 49.1317 127.115 49.1317 124.341C49.1317 121.562 51.3864 119.308 54.1654 119.308C56.9444 119.305 59.1949 121.559 59.1931 124.34V124.34Z" stroke="#41494E" stroke-width="5.669" stroke-linecap="round" stroke-linejoin="round"/>
<path fill-rule="evenodd" clip-rule="evenodd" d="M123.195 130.495C123.195 133.268 120.942 135.526 118.165 135.526C115.385 135.526 113.134 133.272 113.134 130.496C113.134 127.718 115.389 125.463 118.167 125.463C120.946 125.462 123.197 127.714 123.195 130.495Z" fill="#F9D27C"/>
<path fill-rule="evenodd" clip-rule="evenodd" d="M123.195 130.495C123.195 133.268 120.942 135.526 118.165 135.526C115.385 135.526 113.134 133.272 113.134 130.496C113.134 127.718 115.389 125.463 118.167 125.463C120.946 125.462 123.197 127.714 123.195 130.495V130.495Z" stroke="#41494E" stroke-width="5.669" stroke-linecap="round" stroke-linejoin="round"/>
</svg>
