<svg width="47" height="46" viewBox="0 0 47 46" fill="none" xmlns="http://www.w3.org/2000/svg">
<path fill-rule="evenodd" clip-rule="evenodd" d="M6.28353 18.0868C12.0657 15.0057 16.7499 10.2072 19.6908 4.35245C21.2569 1.23465 25.7006 1.21544 27.2936 4.31959L27.3995 4.52598C30.4694 10.508 35.3166 15.3924 41.275 18.5078L42.1791 18.9805C45.1379 20.5276 45.0734 24.7843 42.0692 26.2411C36.4211 28.9799 31.7668 33.4106 28.7534 38.9172L27.5084 41.1924C25.7862 44.3395 21.2458 44.2799 19.6068 41.0887C16.4712 34.9835 11.5217 29.9993 5.43851 26.821L5.25148 26.7233C2.00068 25.0249 1.98178 20.3791 5.21866 18.6543L6.28353 18.0868Z" fill="#41494E"/>
</svg>
