<svg width="83" height="84" viewBox="0 0 83 84" fill="none" xmlns="http://www.w3.org/2000/svg">
<path d="M14 36.5501C24.2239 31.1021 32.5065 22.6174 37.7066 12.2651L38.9244 9.84073C40.0264 7.64684 43.1533 7.63331 44.2742 9.81761L45.9283 13.0408C51.2104 23.3337 59.5508 31.7381 69.8031 37.0987L73.6486 39.1093C75.832 40.251 75.7845 43.3922 73.5675 44.4672L75.3128 48.0664L73.5675 44.4672L72.5004 44.9847C62.0269 50.0634 53.3963 58.2794 47.8086 68.4904L44.3661 74.7813C43.2109 76.8923 40.1652 76.8524 39.0658 74.7117L37.1266 70.936C31.8412 60.6451 23.4983 52.2437 13.2446 46.8864L8.8708 44.6013C6.73293 43.4843 6.72051 40.4291 8.84921 39.2948L14 36.5501Z" stroke="#41494E" stroke-width="8"/>
</svg>
