<svg width="1440" height="1043" viewBox="0 0 1440 1043" fill="none" xmlns="http://www.w3.org/2000/svg">
<g opacity="0.360564">
<path fill-rule="evenodd" clip-rule="evenodd" d="M0 168L55.1159 161.521L116.196 142.604L196.009 95.1654L252.335 69.8637L310.835 74.6636L385.628 120.273L429.465 136.675L482.308 142.604L531.064 126.047C531.064 126.047 547.141 113.245 568.312 95.1654C583.262 82.3983 600.103 65.8432 618.473 54.3851C638.434 41.935 653.412 25.1718 670.866 17.2501C700.499 3.80095 727.536 3.50356 727.536 3.50356C727.536 3.50356 747.297 2.93616 769 12.1215C787.786 20.0722 806.813 36.3354 830.483 54.3851C894.653 103.318 965.253 182.399 1018.03 193.494C1029.16 195.833 1044.57 201.086 1060.3 201.16C1073.81 201.223 1087.26 196.54 1101.81 193.494C1131.39 187.297 1160.51 172.937 1190.61 156.013C1237.7 129.538 1281.86 95.9044 1321.61 74.6636C1336.03 66.9581 1348.65 55.7925 1362.34 54.3851C1376.59 52.92 1391.03 42.6018 1408.3 37.0776C1453.85 22.5091 1505.42 8.19767 1522.71 29.5343C1547.05 59.5464 1510.03 168 1510.03 168V767H0V168Z" fill="#55EECC"/>
<path d="M1.04865 165.377C140.33 165.377 190.905 69.8627 271.095 69.8627C351.285 69.8627 370.967 141.514 471.472 141.514C571.976 141.514 612.191 4 728.354 4C844.517 4 916.352 200 1059.76 200C1203.16 200 1296.73 22.1263 1511.08 22.1263" stroke="#C2F9ED" stroke-width="8" stroke-linecap="round" stroke-linejoin="round"/>
</g>
<rect y="744" width="1440" height="299" fill="#C2F9ED"/>
</svg>
