<svg width="65" height="65" viewBox="0 0 65 65" fill="none" xmlns="http://www.w3.org/2000/svg">
<path fill-rule="evenodd" clip-rule="evenodd" d="M7.78379 26.0026C16.0116 21.6182 22.6772 14.7901 26.862 6.45896V6.45896C29.0905 2.02241 35.4138 1.99508 37.6806 6.41221L37.8313 6.70589C42.1996 15.2181 49.097 22.1684 57.5756 26.6016L58.8622 27.2743C63.0725 29.4757 62.9808 35.5329 58.7058 37.6059V37.6059C50.6687 41.5031 44.0457 47.808 39.7579 55.6436L37.9862 58.8812C35.5356 63.3594 29.0747 63.2746 26.7425 58.7337V58.7337C22.2806 50.0461 15.2375 42.9536 6.58134 38.4311L6.31522 38.292C1.68941 35.8752 1.66252 29.2644 6.26851 26.81L7.78379 26.0026Z" fill="white"/>
</svg>
